#!OML:ASF X:\für Bonn\!DataBase\2005_08_11_Bastian_Final\c3d\Bastian.ASF
:FULLY-SPECIFIED
:DEGREES
83
root 0.635143 17.1487 20.8862 -553.372 -23.8455 -181.284
lowerback 20.5986 -1.62635 -0.515261
upperback 14.9177 -5.3703 0.510851
thorax 4.92761 -4.08713 1.56122
lowerneck -0.22465 -10.3619 -15.5108
upperneck -11.7252 -13.6209 15.6104
head -1.20626 -7.07754 7.1509
rclavicle -7.67309e-014 4.88016e-014
rhumerus -29.538 3.68001 -85.4197
rradius 30.2605
rwrist 0.184288
rhand -13.7246 5.03717
rfingers 7.12502
rthumb 12.3947 -24.5754
lclavicle -7.67309e-014 4.88016e-014
lhumerus -18.1989 -4.54581 82.691
lradius 29.2643
lwrist 18.5865
lhand -13.1156 -10.9721
lfingers 7.12502
lthumb 12.9818 18.604
rfemur -14.2368 8.50408 13.3347
rtibia 31.5907
rfoot -8.88606 -21.4094
rtoes -8.18872
lfemur 29.3455 3.4782 -14.8698
ltibia -3.18055e-014
lfoot -7.94205 -1.2133
ltoes -17.6943
84
root 0.646979 17.1396 20.8153 -553.36 -23.9544 -181.283
lowerback 20.8033 -1.64445 -0.396056
upperback 15.0161 -5.42352 0.547096
thorax 4.9371 -4.12616 1.5502
lowerneck -0.24771 -10.4135 -15.5012
upperneck -11.9206 -13.6989 15.4954
head -1.25984 -7.11982 7.11815
rclavicle -3.31473e-014 2.60408e-014
rhumerus -29.2968 4.14813 -85.4725
rradius 30.2792
rwrist -0.0383418
rhand -13.7563 5.11946
rfingers 7.12502
rthumb 12.3641 -24.4949
lclavicle -3.31473e-014 2.60408e-014
lhumerus -18.4823 -5.04522 82.9825
lradius 29.4169
lwrist 18.4827
lhand -13.0351 -10.775
lfingers 7.12502
lthumb 13.0594 18.7962
rfemur -14.1949 7.8899 13.4189
rtibia 31.7291
rfoot -8.24428 -20.9186
rtoes -9.28318
lfemur 29.5276 3.22607 -14.8317
ltibia 4.77083e-014
lfoot -8.17257 -0.986655
ltoes -19.0618
85
root 0.659665 17.131 20.7439 -553.324 -24.062 -181.313
lowerback 20.9813 -1.6497 -0.309509
upperback 15.1245 -5.46636 0.578998
thorax 4.97348 -4.16295 1.54808
lowerneck -0.288359 -10.4712 -15.5289
upperneck -12.0985 -13.7807 15.4459
head -1.29641 -7.16466 7.1085
rclavicle -6.65929e-015 -7.15625e-015
rhumerus -29.0478 4.5299 -85.5107
rradius 30.3177
rwrist -0.258122
rhand -13.7512 5.1757
rfingers 7.12502
rthumb 12.369 -24.4384
lclavicle -6.65929e-015 -7.15625e-015
lhumerus -18.8059 -5.52978 83.2738
lradius 29.5956
lwrist 18.3588
lhand -12.9446 -10.6111
lfingers 7.12502
lthumb 13.1466 18.9544
rfemur -14.1841 7.32879 13.4773
rtibia 31.921
rfoot -7.60362 -20.4541
rtoes -10.2792
lfemur 29.6883 2.98418 -14.8244
ltibia -4.13472e-014
lfoot -8.38609 -0.738745
ltoes -20.2946
86
root 0.673703 17.1226 20.6732 -553.326 -24.1707 -181.291
lowerback 21.1913 -1.6558 -0.170987
upperback 15.2386 -5.50574 0.615115
thorax 4.9974 -4.1957 1.52344
lowerneck -0.313812 -10.5242 -15.4469
upperneck -12.304 -13.8606 15.3283
head -1.35767 -7.211 7.06482
rclavicle -4.9895e-014 1.66979e-014
rhumerus -28.7904 4.80265 -85.5457
rradius 30.3439
rwrist -0.452175
rhand -13.7799 5.20979
rfingers 7.12502
rthumb 12.3414 -24.406
lclavicle -4.9895e-014 1.66979e-014
lhumerus -19.1581 -6.08316 83.5721
lradius 29.8056
lwrist 18.3373
lhand -12.8953 -10.4074
lfingers 7.12502
lthumb 13.1941 19.1551
rfemur -14.1615 6.67188 13.5956
rtibia 32.139
rfoot -6.92275 -19.9326
rtoes -10.936
lfemur 29.8511 2.72877 -14.7703
ltibia -4.13472e-014
lfoot -8.49766 -0.466851
ltoes -21.8326
87
root 0.689574 17.1164 20.6023 -553.331 -24.297 -181.235
lowerback 21.3898 -1.67579 -0.00839075
upperback 15.3526 -5.55882 0.656814
thorax 5.02698 -4.23337 1.49271
lowerneck -0.322615 -10.5725 -15.4041
upperneck -12.5201 -13.9344 15.2631
head -1.41826 -7.25559 7.04488
rclavicle -1.03865e-013 7.45443e-014
rhumerus -28.5469 5.16251 -85.6121
rradius 30.3967
rwrist -0.677856
rhand -13.8679 5.14293
rfingers 7.12502
rthumb 12.2565 -24.4779
lclavicle -1.03865e-013 7.45443e-014
lhumerus -19.5594 -6.61113 83.8685
lradius 30.0777
lwrist 18.4453
lhand -12.8169 -10.1935
lfingers 7.12502
lthumb 13.2697 19.3641
rfemur -14.146 6.00512 13.7591
rtibia 32.3745
rfoot -6.28036 -19.466
rtoes -11.5927
lfemur 29.987 2.44884 -14.6875
ltibia -1.43125e-013
lfoot -8.47407 -0.170084
ltoes -23.3737
88
root 0.70622 17.1098 20.5318 -553.369 -24.3846 -181.154
lowerback 21.6396 -1.69065 0.198137
upperback 15.4743 -5.60388 0.688848
thorax 5.03605 -4.26567 1.42995
lowerneck -0.393518 -10.6231 -15.3049
upperneck -12.7138 -14.0069 15.1735
head -1.46879 -7.29981 7.00443
rclavicle 3.18055e-014 -2.78299e-014
rhumerus -28.2963 5.4652 -85.6864
rradius 30.4556
rwrist -0.950885
rhand -13.9595 5.11844
rfingers 7.12502
rthumb 12.1681 -24.5077
lclavicle 3.18055e-014 -2.78299e-014
lhumerus -19.9821 -7.06242 84.1456
lradius 30.3867
lwrist 18.6764
lhand -12.6661 -10.033
lfingers 7.12502
lthumb 13.4151 19.515
rfemur -14.1143 5.25749 13.9503
rtibia 32.6004
rfoot -5.6551 -18.8658
rtoes -11.8389
lfemur 30.1434 2.19397 -14.5619
ltibia 5.08889e-014
lfoot -8.31549 0.139105
ltoes -24.7274
89
root 0.724552 17.1028 20.4622 -553.424 -24.4766 -181.022
lowerback 21.9586 -1.71636 0.455136
upperback 15.5657 -5.6471 0.727457
thorax 4.97398 -4.29099 1.35496
lowerneck -0.478795 -10.6828 -15.2061
upperneck -12.8612 -14.0886 15.0985
head -1.50079 -7.34759 6.96455
rclavicle 1.55052e-014 -1.86858e-014
rhumerus -28.0618 5.72927 -85.7556
rradius 30.5196
rwrist -1.13536
rhand -14.063 5.01566
rfingers 7.12502
rthumb 12.0683 -24.6163
lclavicle 1.55052e-014 -1.86858e-014
lhumerus -20.4704 -7.51839 84.4073
lradius 30.7566
lwrist 19.0441
lhand -12.4648 -9.834
lfingers 7.12502
lthumb 13.6091 19.7012
rfemur -14.0802 4.47557 14.1984
rtibia 32.825
rfoot -5.12658 -18.2823
rtoes -12.2175
lfemur 30.2862 1.92045 -14.3833
ltibia 2.54444e-014
lfoot -8.11235 0.436484
ltoes -26.0796
90
root 0.745075 17.0975 20.394 -553.48 -24.5875 -180.911
lowerback 22.3022 -1.73595 0.704027
upperback 15.6744 -5.68915 0.758856
thorax 4.92088 -4.31897 1.27738
lowerneck -0.625053 -10.7501 -15.0727
upperneck -13.0046 -14.1759 15.0175
head -1.52424 -7.39918 6.9134
rclavicle -1.67973e-014 3.77691e-015
rhumerus -27.7881 5.99187 -85.8315
rradius 30.5763
rwrist -1.39266
rhand -14.159 4.90348
rfingers 7.12502
rthumb 11.9758 -24.7339
lclavicle -1.67973e-014 3.77691e-015
lhumerus -20.8894 -7.81658 84.6292
lradius 31.1118
lwrist 19.5662
lhand -12.1295 -9.66677
lfingers 7.12502
lthumb 13.9322 19.8465
rfemur -14.0367 3.73469 14.4212
rtibia 33.0307
rfoot -4.68331 -17.7584
rtoes -12.7711
lfemur 30.4218 1.628 -14.219
ltibia -5.725e-014
lfoot -7.85876 0.713802
ltoes -27.5018
